<svg width="160" height="19" viewBox="0 0 160 19" fill="none" xmlns="http://www.w3.org/2000/svg">
<path d="M7.00781 10.3945C5.07812 9.83984 3.67188 9.16016 2.78906 8.35547C1.91406 7.54297 1.47656 6.54297 1.47656 5.35547C1.47656 4.01172 2.01172 2.90234 3.08203 2.02734C4.16016 1.14453 5.55859 0.703125 7.27734 0.703125C8.44922 0.703125 9.49219 0.929687 10.4062 1.38281C11.3281 1.83594 12.0391 2.46094 12.5391 3.25781C13.0469 4.05469 13.3008 4.92578 13.3008 5.87109H11.0391C11.0391 4.83984 10.7109 4.03125 10.0547 3.44531C9.39844 2.85156 8.47266 2.55469 7.27734 2.55469C6.16797 2.55469 5.30078 2.80078 4.67578 3.29297C4.05859 3.77734 3.75 4.45312 3.75 5.32031C3.75 6.01562 4.04297 6.60547 4.62891 7.08984C5.22266 7.56641 6.22656 8.00391 7.64062 8.40234C9.0625 8.80078 10.1719 9.24219 10.9688 9.72656C11.7734 10.2031 12.3672 10.7617 12.75 11.4023C13.1406 12.043 13.3359 12.7969 13.3359 13.6641C13.3359 15.0469 12.7969 16.1562 11.7188 16.9922C10.6406 17.8203 9.19922 18.2344 7.39453 18.2344C6.22266 18.2344 5.12891 18.0117 4.11328 17.5664C3.09766 17.1133 2.3125 16.4961 1.75781 15.7148C1.21094 14.9336 0.9375 14.0469 0.9375 13.0547H3.19922C3.19922 14.0859 3.57812 14.9023 4.33594 15.5039C5.10156 16.0977 6.12109 16.3945 7.39453 16.3945C8.58203 16.3945 9.49219 16.1523 10.125 15.668C10.7578 15.1836 11.0742 14.5234 11.0742 13.6875C11.0742 12.8516 10.7812 12.207 10.1953 11.7539C9.60938 11.293 8.54688 10.8398 7.00781 10.3945ZM35.3438 18H33.082L24.4922 4.85156V18H22.2305V0.9375H24.4922L33.1055 14.1445V0.9375H35.3438V18ZM54.9844 10.1133H47.5898V16.1602H56.1797V18H45.3398V0.9375H56.0625V2.78906H47.5898V8.27344H54.9844V10.1133ZM74.4023 13.5469H67.2539L65.6484 18H63.3281L69.8438 0.9375H71.8125L78.3398 18H76.0312L74.4023 13.5469ZM67.9336 11.6953H73.7344L70.8281 3.71484L67.9336 11.6953ZM90.9727 10.0664L88.8867 12.2344V18H86.6367V0.9375H88.8867V9.375L96.4688 0.9375H99.1875L92.4727 8.47266L99.7148 18H97.0195L90.9727 10.0664ZM117.328 10.1133H109.934V16.1602H118.523V18H107.684V0.9375H118.406V2.78906H109.934V8.27344H117.328V10.1133ZM133.582 11.0977H129.574V18H127.312V0.9375H132.961C134.883 0.9375 136.359 1.375 137.391 2.25C138.43 3.125 138.949 4.39844 138.949 6.07031C138.949 7.13281 138.66 8.05859 138.082 8.84766C137.512 9.63672 136.715 10.2266 135.691 10.6172L139.699 17.8594V18H137.285L133.582 11.0977ZM129.574 9.25781H133.031C134.148 9.25781 135.035 8.96875 135.691 8.39062C136.355 7.8125 136.688 7.03906 136.688 6.07031C136.688 5.01562 136.371 4.20703 135.738 3.64453C135.113 3.08203 134.207 2.79688 133.02 2.78906H129.574V9.25781ZM153.141 10.3945C151.211 9.83984 149.805 9.16016 148.922 8.35547C148.047 7.54297 147.609 6.54297 147.609 5.35547C147.609 4.01172 148.145 2.90234 149.215 2.02734C150.293 1.14453 151.691 0.703125 153.41 0.703125C154.582 0.703125 155.625 0.929687 156.539 1.38281C157.461 1.83594 158.172 2.46094 158.672 3.25781C159.18 4.05469 159.434 4.92578 159.434 5.87109H157.172C157.172 4.83984 156.844 4.03125 156.188 3.44531C155.531 2.85156 154.605 2.55469 153.41 2.55469C152.301 2.55469 151.434 2.80078 150.809 3.29297C150.191 3.77734 149.883 4.45312 149.883 5.32031C149.883 6.01562 150.176 6.60547 150.762 7.08984C151.355 7.56641 152.359 8.00391 153.773 8.40234C155.195 8.80078 156.305 9.24219 157.102 9.72656C157.906 10.2031 158.5 10.7617 158.883 11.4023C159.273 12.043 159.469 12.7969 159.469 13.6641C159.469 15.0469 158.93 16.1562 157.852 16.9922C156.773 17.8203 155.332 18.2344 153.527 18.2344C152.355 18.2344 151.262 18.0117 150.246 17.5664C149.23 17.1133 148.445 16.4961 147.891 15.7148C147.344 14.9336 147.07 14.0469 147.07 13.0547H149.332C149.332 14.0859 149.711 14.9023 150.469 15.5039C151.234 16.0977 152.254 16.3945 153.527 16.3945C154.715 16.3945 155.625 16.1523 156.258 15.668C156.891 15.1836 157.207 14.5234 157.207 13.6875C157.207 12.8516 156.914 12.207 156.328 11.7539C155.742 11.293 154.68 10.8398 153.141 10.3945Z" fill="black"/>
</svg>
