<svg width="160" height="19" viewBox="0 0 160 19" fill="none" xmlns="http://www.w3.org/2000/svg">
<path d="M11.0742 13.6875C11.0742 13.2891 11.0117 12.9375 10.8867 12.6328C10.7695 12.3203 10.5586 12.0391 10.2539 11.7891C9.95703 11.5391 9.54297 11.3008 9.01172 11.0742C8.48828 10.8477 7.82422 10.6172 7.01953 10.3828C6.17578 10.1328 5.41406 9.85547 4.73438 9.55078C4.05469 9.23828 3.47266 8.88281 2.98828 8.48438C2.50391 8.08594 2.13281 7.62891 1.875 7.11328C1.61719 6.59766 1.48828 6.00781 1.48828 5.34375C1.48828 4.67969 1.625 4.06641 1.89844 3.50391C2.17188 2.94141 2.5625 2.45312 3.07031 2.03906C3.58594 1.61719 4.19922 1.28906 4.91016 1.05469C5.62109 0.820312 6.41406 0.703125 7.28906 0.703125C8.57031 0.703125 9.65625 0.949219 10.5469 1.44141C11.4453 1.92578 12.1289 2.5625 12.5977 3.35156C13.0664 4.13281 13.3008 4.96875 13.3008 5.85938H11.0508C11.0508 5.21875 10.9141 4.65234 10.6406 4.16016C10.3672 3.66016 9.95312 3.26953 9.39844 2.98828C8.84375 2.69922 8.14062 2.55469 7.28906 2.55469C6.48438 2.55469 5.82031 2.67578 5.29688 2.91797C4.77344 3.16016 4.38281 3.48828 4.125 3.90234C3.875 4.31641 3.75 4.78906 3.75 5.32031C3.75 5.67969 3.82422 6.00781 3.97266 6.30469C4.12891 6.59375 4.36719 6.86328 4.6875 7.11328C5.01562 7.36328 5.42969 7.59375 5.92969 7.80469C6.4375 8.01562 7.04297 8.21875 7.74609 8.41406C8.71484 8.6875 9.55078 8.99219 10.2539 9.32812C10.957 9.66406 11.5352 10.043 11.9883 10.4648C12.4492 10.8789 12.7891 11.3516 13.0078 11.8828C13.2344 12.4062 13.3477 13 13.3477 13.6641C13.3477 14.3594 13.207 14.9883 12.9258 15.5508C12.6445 16.1133 12.2422 16.5938 11.7188 16.9922C11.1953 17.3906 10.5664 17.6992 9.83203 17.918C9.10547 18.1289 8.29297 18.2344 7.39453 18.2344C6.60547 18.2344 5.82812 18.125 5.0625 17.9062C4.30469 17.6875 3.61328 17.3594 2.98828 16.9219C2.37109 16.4844 1.875 15.9453 1.5 15.3047C1.13281 14.6562 0.949219 13.9062 0.949219 13.0547H3.19922C3.19922 13.6406 3.3125 14.1445 3.53906 14.5664C3.76562 14.9805 4.07422 15.3242 4.46484 15.5977C4.86328 15.8711 5.3125 16.0742 5.8125 16.207C6.32031 16.332 6.84766 16.3945 7.39453 16.3945C8.18359 16.3945 8.85156 16.2852 9.39844 16.0664C9.94531 15.8477 10.3594 15.5352 10.6406 15.1289C10.9297 14.7227 11.0742 14.2422 11.0742 13.6875ZM35.3555 0.9375V18H33.082L24.4922 4.83984V18H22.2305V0.9375H24.4922L33.1172 14.1328V0.9375H35.3555ZM56.2031 16.1602V18H47.168V16.1602H56.2031ZM47.625 0.9375V18H45.3633V0.9375H47.625ZM55.0078 8.27344V10.1133H47.168V8.27344H55.0078ZM56.0859 0.9375V2.78906H47.168V0.9375H56.0859ZM71.3203 2.44922L65.6719 18H63.3633L69.8672 0.9375H71.3555L71.3203 2.44922ZM76.0547 18L70.3945 2.44922L70.3594 0.9375H71.8477L78.375 18H76.0547ZM75.7617 11.6836V13.5352H66.1758V11.6836H75.7617ZM88.9219 0.9375V18H86.6602V0.9375H88.9219ZM99.2227 0.9375L92.1328 8.89453L88.1484 13.0312L87.7734 10.6172L90.7734 7.3125L96.5039 0.9375H99.2227ZM97.043 18L90.7266 9.67969L92.0742 7.88672L99.7383 18H97.043ZM118.57 16.1602V18H109.535V16.1602H118.57ZM109.992 0.9375V18H107.73V0.9375H109.992ZM117.375 8.27344V10.1133H109.535V8.27344H117.375ZM118.453 0.9375V2.78906H109.535V0.9375H118.453ZM127.371 0.9375H133.02C134.301 0.9375 135.383 1.13281 136.266 1.52344C137.156 1.91406 137.832 2.49219 138.293 3.25781C138.762 4.01562 138.996 4.94922 138.996 6.05859C138.996 6.83984 138.836 7.55469 138.516 8.20312C138.203 8.84375 137.75 9.39062 137.156 9.84375C136.57 10.2891 135.867 10.6211 135.047 10.8398L134.414 11.0859H129.105L129.082 9.24609H133.09C133.902 9.24609 134.578 9.10547 135.117 8.82422C135.656 8.53516 136.062 8.14844 136.336 7.66406C136.609 7.17969 136.746 6.64453 136.746 6.05859C136.746 5.40234 136.617 4.82812 136.359 4.33594C136.102 3.84375 135.695 3.46484 135.141 3.19922C134.594 2.92578 133.887 2.78906 133.02 2.78906H129.633V18H127.371V0.9375ZM137.344 18L133.195 10.2656L135.551 10.2539L139.758 17.8594V18H137.344ZM157.254 13.6875C157.254 13.2891 157.191 12.9375 157.066 12.6328C156.949 12.3203 156.738 12.0391 156.434 11.7891C156.137 11.5391 155.723 11.3008 155.191 11.0742C154.668 10.8477 154.004 10.6172 153.199 10.3828C152.355 10.1328 151.594 9.85547 150.914 9.55078C150.234 9.23828 149.652 8.88281 149.168 8.48438C148.684 8.08594 148.312 7.62891 148.055 7.11328C147.797 6.59766 147.668 6.00781 147.668 5.34375C147.668 4.67969 147.805 4.06641 148.078 3.50391C148.352 2.94141 148.742 2.45312 149.25 2.03906C149.766 1.61719 150.379 1.28906 151.09 1.05469C151.801 0.820312 152.594 0.703125 153.469 0.703125C154.75 0.703125 155.836 0.949219 156.727 1.44141C157.625 1.92578 158.309 2.5625 158.777 3.35156C159.246 4.13281 159.48 4.96875 159.48 5.85938H157.23C157.23 5.21875 157.094 4.65234 156.82 4.16016C156.547 3.66016 156.133 3.26953 155.578 2.98828C155.023 2.69922 154.32 2.55469 153.469 2.55469C152.664 2.55469 152 2.67578 151.477 2.91797C150.953 3.16016 150.562 3.48828 150.305 3.90234C150.055 4.31641 149.93 4.78906 149.93 5.32031C149.93 5.67969 150.004 6.00781 150.152 6.30469C150.309 6.59375 150.547 6.86328 150.867 7.11328C151.195 7.36328 151.609 7.59375 152.109 7.80469C152.617 8.01562 153.223 8.21875 153.926 8.41406C154.895 8.6875 155.73 8.99219 156.434 9.32812C157.137 9.66406 157.715 10.043 158.168 10.4648C158.629 10.8789 158.969 11.3516 159.188 11.8828C159.414 12.4062 159.527 13 159.527 13.6641C159.527 14.3594 159.387 14.9883 159.105 15.5508C158.824 16.1133 158.422 16.5938 157.898 16.9922C157.375 17.3906 156.746 17.6992 156.012 17.918C155.285 18.1289 154.473 18.2344 153.574 18.2344C152.785 18.2344 152.008 18.125 151.242 17.9062C150.484 17.6875 149.793 17.3594 149.168 16.9219C148.551 16.4844 148.055 15.9453 147.68 15.3047C147.312 14.6562 147.129 13.9062 147.129 13.0547H149.379C149.379 13.6406 149.492 14.1445 149.719 14.5664C149.945 14.9805 150.254 15.3242 150.645 15.5977C151.043 15.8711 151.492 16.0742 151.992 16.207C152.5 16.332 153.027 16.3945 153.574 16.3945C154.363 16.3945 155.031 16.2852 155.578 16.0664C156.125 15.8477 156.539 15.5352 156.82 15.1289C157.109 14.7227 157.254 14.2422 157.254 13.6875Z" fill="white"/>
</svg>
